<?xml version="1.0" encoding="utf-8"?>
<!-- Generator: Adobe Illustrator 18.1.0, SVG Export Plug-In . SVG Version: 6.00 Build 0)  -->
<svg version="1.1" id="Capa_1" xmlns="http://www.w3.org/2000/svg" xmlns:xlink="http://www.w3.org/1999/xlink" x="0px" y="0px"
	 viewBox="0 0 100 100" enable-background="new 0 0 100 100" xml:space="preserve">
<path fill="#1E1E1C" d="M79.7,69.5c0.4-1.5-0.5-2.9-2-3.3c-1.6-0.4-3.1,0.5-3.8,1.9C73.5,69,73.4,70,73.5,71
	c-1.8-1.5-3.7-2.3-5.7-3.1c2.3-1.5,3.6-5.9,0.7-7.2c-1.5-0.7-2.6,0.7-3.1,2c-0.6,1.4-0.6,3,0,4.4c-1-0.4-1.9-0.8-2.9-1.4
	c-1.2-0.7-2-1.6-2.7-2.6c1.3-0.4,2.6-1.1,3.5-2c1.1-1.1,1.8-3.1,0.6-4.4c-1-1.2-2.8-1-4-0.1c-1,0.8-1.6,1.9-1.9,3.1
	c-0.7-1.5-1.3-3-2.4-4.2c0-0.1,0.1-0.2,0.1-0.3c-0.4-10.9,13.3-29-2.3-35.7c-4.2-1.8-9.7-1.1-13.1,2.1c-3.3,3.1-3,7.4-1.6,11.2
	c-3.1-2.4-7.1-4.1-11-2.5c-4,1.7-6.4,6.2-6.9,10.3c-1.5,13.2,13.7,16.7,23.8,14.6c0.1,0,0.2-0.1,0.3-0.2c1.2,0,2.2-0.1,3.5-0.1
	c4.1,0.2,6.2,2.3,7.9,5.7c0,0,0,0.1,0.1,0.1c-1.2-0.2-2.5-0.1-3.6,0.7c-1,0.8-1.6,2.3-1,3.5c0.6,1.2,2.1,1.6,3.3,1.2
	c1.3-0.4,2.2-1.7,2.7-2.9c0.9,1.3,1.9,2.5,3.3,3.3c0.8,0.5,1.7,0.9,2.6,1.2c-0.5,0.4-1,0.8-1.5,1.2c-0.5,0.5-1.2,1-1.5,1.7
	c-0.4,1.1,0.5,2,1.6,2.1c2.1,0.1,4.7-1.8,4.4-4c1.4,0.4,2.7,0.9,3.9,1.7c0.7,0.5,1.3,1,2,1.5c0,0-0.1,0-0.1,0
	c-1.4-0.1-2.9,0.8-3.5,2.1c-0.6,1.2-0.2,2.9,1,3.6c1.3,0.7,3,0.2,4-0.8c0.4-0.4,1-1.2,1.2-1.9c1.5,2.2,2.6,4.7,3.2,7.4
	c0.1,0.6,0.9,0.3,0.8-0.2c-0.5-3.2-1.7-6-3.6-8.5c0,0,0,0,0,0C77.4,72.7,79.3,71.2,79.7,69.5z M54.3,54.2C54.2,54.1,54.1,54,54,54
	c-2.6-1.6-6.7-1-9.7,0c-7.8-0.3-19.4,0.7-21.7-9.1c-1.1-4.5,0.9-10.2,4.9-12.6c4.4-2.6,8.4,0.4,12.2,2.5c0.4,0.2,0.9-0.3,0.6-0.7
	c-0.6-2.7-1.6-5.6-0.8-8.3c0.9-2.9,4.1-4.9,6.9-5.5c6.9-1.6,12.7,4,13,10.6C59.9,39,54.1,45.9,54.3,54.2z M57.4,62.4
	c-0.5,0.7-1,1.5-1.7,2.1c-0.6,0.4-2,0.8-2.3-0.2c-0.2-0.8,0.5-1.5,1.1-1.9c0.8-0.4,1.8-0.4,2.8-0.4C57.3,62.1,57.4,62.2,57.4,62.4
	C57.4,62.4,57.4,62.4,57.4,62.4z M59.1,61.8c-0.1-0.2-0.2-0.4-0.3-0.6c0.1-1.1,0.5-2.2,1.3-3c0.8-1,3.6-2,3.3,0.4
	C63.1,60.6,60.9,61.2,59.1,61.8z M62.9,71.2c-0.5,0-0.4-0.1-0.2-0.5c0.2-0.3,0.5-0.5,0.7-0.8c0.5-0.6,1-1.2,1.5-1.9
	c0.3,0.1,0.6,0.2,0.9,0.3C66.1,69.9,64.3,71.1,62.9,71.2z M66.3,67.3c-0.1,0-0.1-0.1-0.2-0.1c0-0.1,0.1-0.2,0.1-0.2
	c-0.2-1-0.2-2,0.1-3c0.2-0.8,1.4-3.3,2.3-1.6C69.7,64.7,67.2,65.8,66.3,67.3z M73.9,75c-0.5,0.7-1.4,1.3-2.3,1.3
	c-1,0-1.3-1.1-0.8-1.9c0.5-0.8,1.4-1.1,2.2-1.5c0.3-0.2,0.3-0.4,0.2-0.6c0.5,0.5,1,1,1.4,1.5C74.4,74.1,74.3,74.6,73.9,75z
	 M74.9,72.3c-0.1-0.9-0.2-1.7,0-2.6c0.3-1.2,1.2-2.5,2.6-2.1c1.9,0.4,0.9,2.4-0.1,3.2c-0.7,0.6-1.6,1.1-2.1,1.9
	C75.1,72.5,75,72.4,74.9,72.3z"/>
</svg>
