<?xml version="1.0" encoding="utf-8"?>
<!-- Generator: Adobe Illustrator 18.1.0, SVG Export Plug-In . SVG Version: 6.00 Build 0)  -->
<svg version="1.1" id="Capa_1" xmlns="http://www.w3.org/2000/svg" xmlns:xlink="http://www.w3.org/1999/xlink" x="0px" y="0px"
	 viewBox="0 0 100 100" enable-background="new 0 0 100 100" xml:space="preserve">
<path fill="#1E1E1C" d="M76.6,73.5c-0.1-0.1-0.2-0.2-0.3-0.3c-0.1-0.1-0.3-0.2-0.4-0.2c0.3-0.3,0.4-0.7,0.1-1.1
	c-6.3-9.3-5.7-20.9-8.1-31.4c-1.6-7.2-5.1-15.2-12.3-17.3c0.1-0.1,0.1-0.2,0.1-0.4c0.1-4.2-4-7.7-8.2-7c-3.9,0.7-6.7,4.7-5.4,8.6
	c0,0,0,0,0,0.1c-4.9,2.1-8.5,6.1-9.9,12.1c-1.3,5.4-0.6,11-0.8,16.5c-0.2,7.4-2.6,13.6-7.5,18.8c0,0,0,0,0,0
	c-0.3,0.1-0.4,0.3-0.5,0.5c-0.3,0.3-0.5,0.6-0.8,0.8c-0.5,0.5,0.1,1.1,0.7,0.9c0,0.1,0.1,0.2,0.2,0.2c13.7,11,38.2,11.5,52.3,0.7
	c0.4,0,0.8-0.3,0.9-0.7C76.8,73.9,76.8,73.7,76.6,73.5z M47.4,17.4c3.5-1.3,6.7,1.9,6.9,5.3c0,0,0,0.1,0,0.1
	c-0.7-0.1-1.5-0.2-2.3-0.3c-0.3,0-0.6,0-0.9,0c0.1,0,0.3-0.1,0.3-0.3c0.9-2.3-3.3-2.5-4.5-2c-0.9,0.4-1.5,1.3-1.1,2.2
	c0.1,0.2,0.3,0.4,0.5,0.6c-0.9,0.2-1.8,0.4-2.7,0.7C43.7,21.2,44.9,18.4,47.4,17.4z M47.4,22.3c-0.2,0.2-0.5-0.3-0.5-0.5
	c0-0.3,0.2-0.4,0.5-0.5c0.4-0.2,0.9-0.3,1.4-0.3c0.5,0,2,0.1,1.8,0.9c-0.1,0.3,0.1,0.5,0.3,0.6c-1,0-2,0.1-2.9,0.2
	C48,22.5,47.7,22.1,47.4,22.3z M33.1,51c0-5.4-0.5-11,1.3-16.2c2.4-7.1,8.7-10.3,15.9-10.6c13.6-0.7,15.9,14.8,17.1,25.2
	c0.9,7.8,1.8,15.6,6,22.2c-14.1-7.5-31.9-4.9-46.9-0.6C31.4,65.5,33.1,58.5,33.1,51z M53.7,69.1c0.1,3-1.9,6-5.3,5.3
	c-2.3-0.5-3.3-3.1-2.4-5C48.6,69.2,51.1,69.1,53.7,69.1z M50,80.2c-9.3-0.1-17.3-3.1-25.5-7.2c0,0,0,0,0,0
	c6.7-1.2,13.3-2.6,19.8-3.3c-0.9,2.3,0.1,5.3,2.9,6.3c4.5,1.6,8.1-2.5,7.8-6.7c6.4,0.3,12.6,1.6,18.9,4.9
	C66.3,77.7,58.9,80.3,50,80.2z"/>
</svg>
