<?xml version="1.0" encoding="utf-8"?>
<!-- Generator: Adobe Illustrator 18.1.0, SVG Export Plug-In . SVG Version: 6.00 Build 0)  -->
<svg version="1.1" id="Capa_1" xmlns="http://www.w3.org/2000/svg" xmlns:xlink="http://www.w3.org/1999/xlink" x="0px" y="0px"
	 viewBox="0 0 100 100" enable-background="new 0 0 100 100" xml:space="preserve">
<path fill="#1E1E1C" d="M78.5,35.7C78,31.1,78,20.6,72.4,18.5c-0.2-0.3-0.7-0.4-1-0.3c-0.5-0.1-1-0.1-1.5-0.1
	c-3.9,0.2-7.7,4.1-10.1,6.8c-3.1,3.4-5.4,7.3-7,11.7c-0.4-0.2-0.9-0.3-1.5-0.2c-2,0.1-4,0.3-6,0.5c-3.1-6.9-8.8-15.3-17-16.5
	c-7.2-1-8,9.3-8.5,14.4c-0.8,6.9-1.3,19.2,6.8,22.5c1.5,0.6,3,0.7,4.5,0.4c-1.4,3.9-1.9,7.8-2,12c0,3.2-0.4,7.3,0.9,10.3
	c0.1,0.2,0.5,0.4,0.7,0.4c0.8,0,0.9-0.3,1.6-0.6c0.8-0.6,1.6-1.2,2.4-1.8c1.8,0.2,3.6,0.3,5.4,0.5c1.5,0.5,3.4,2,4.8,2.8
	c0.6,0.3,1.2-0.2,1.1-0.8c-2.2-11-1.4-21.1,2.2-31.5c3.6,8.2,5.6,16.3,4.6,25.4c-0.1,0.8,0.9,1,1.4,0.6c2.2-2,4.4-4,6.4-6.2
	c0,0,0,0,0,0c2.9,1.5,5.7,3,8.4,4.8c0.5,0.4,1.3-0.1,1.3-0.8c-0.3-5.7-1.9-11-4.8-15.9c2.2,0.8,4.5,1.1,6.8,0.7
	C81.9,56,79.1,42.2,78.5,35.7z M63.8,23.4c1.3-1.1,3.4-3,5.2-3.3c0.6-0.1,1.2-0.1,1.6-0.1c-0.7,4.6-2.9,8.3-6.7,11.2
	c-3,2.3-6.6,3.5-10,5.1C56.5,31.5,59.6,27,63.8,23.4z M28.7,21.7c1.3,0.1,2.9,0.9,4,1.5c5.5,3,8.2,8.6,11.5,13.6
	c-7.8-0.7-19-3.7-20.6-12.2C24.3,22.7,25.3,21.5,28.7,21.7z M27.5,55.5c-7.1-3.1-6.9-13.1-6.3-19.8c0.3-3,0.8-6.1,1.7-9.1
	c1.7,8,14,12.1,21.5,11.2c0,0,0,0,0,0.1c-0.2,0.7-0.4,1.6-0.5,2.5c-0.2,0-0.5,0-0.7,0c-0.5,0.1-0.9,0.2-1.3,0.2
	c-0.9,0-1.8-0.1-2.7-0.3c-0.7-0.2-1.3,0.9-0.5,1.3c1,0.4,2,0.6,3.2,0.5c0.5-0.1,1.1-0.2,1.6-0.4c0.2-0.1,0.3-0.1,0.4-0.2
	c0,0.7,0,1.3,0.1,1.9c-1.4,0.1-2.6,0.4-3.8,1.2c-0.4,0.3-0.1,1,0.4,0.7c1.1-0.6,2.3-1.1,3.5-1.5c0.1,0.4,0.2,0.8,0.5,1.2
	c0,0,0,0-0.1,0C40.5,49.7,34.2,58.4,27.5,55.5z M44.4,79c-2-1.4-4.7-3.4-6.8-3.6c-2.1-0.1-3.2,1.9-5,2c-4.2,0.2-0.7-17.5,0.1-19.9
	c0-0.1,0-0.2,0-0.3c5.1-1.9,9.6-7.8,12.4-11.3c0.2,0.1,0.3,0.3,0.5,0.4c0.5,0.3,1.1,0.4,1.7,0.6C42.1,56.5,42.6,68.4,44.4,79z
	 M48.2,45.7c-0.3,0-0.5-0.1-0.8-0.1c-3.3-0.6-2.7-5-2.3-7.5c0,0,0-0.1,0-0.1c1.1,0,2.1-0.2,3.2-0.3c0.8-0.1,2.7-0.6,3.3-0.3
	c1.1,0.5,0.7,2.2,0.7,3.1c0,0.9,0.2,2.1,0,3c-0.4,1.9-1.9,2.3-3.5,2.3C48.8,45.6,48.5,45.6,48.2,45.7z M63.1,55.9
	c3.1,4.6,4.9,9.7,5.6,15.2c-2.3-1.4-4.7-2.5-7.2-3.3c0.1-0.7-0.7-1.3-1.3-0.7c-1.7,1.8-3.5,3.5-5.3,5.1c0.6-8.7-1-17.5-5.9-24.8
	c0-0.1,0.1-0.2,0.1-0.4c1.4,0,2.8-0.2,3.6-1c0.1-0.1,0.2-0.2,0.3-0.3c0,0.1,0,0.3,0.1,0.4c2.2,3.6,5.8,7.3,9.9,9.5
	C63,55.7,63,55.8,63.1,55.9z M71.1,56.5c-2.3,0-4.6-0.7-6.7-1.7c0,0-0.1,0-0.1,0c-4.1-2-7.7-5.6-10.1-9.2c-0.2-0.4-0.7-0.4-0.9-0.2
	c0.3-0.5,0.4-1.1,0.4-1.7c1,0.2,2,0.7,2.7,1.3c0.4,0.4,1-0.2,0.6-0.6c-0.9-1.1-2-1.5-3.3-1.4c0-0.1,0-0.3,0-0.4c0-0.2,0-0.5,0-0.8
	c1.8-0.1,3.5-0.7,4.9-1.9c0.4-0.3-0.1-1-0.5-0.7c-1.3,1-2.8,1.6-4.4,1.7c0-1.2,0.1-2.5-0.3-3.5c0.1,0,0.1,0,0.2,0
	c4.9-1.6,9.5-2.7,13.4-6.3c3-2.7,5.2-6.4,5.5-10.5c1.6,1,2.2,3.1,2.7,4.8c0.9,3.6,1.2,7.4,1.5,11.1C77.3,42.4,80.4,56.6,71.1,56.5z"
	/>
</svg>
