<?xml version="1.0" encoding="utf-8"?>
<!-- Generator: Adobe Illustrator 18.1.0, SVG Export Plug-In . SVG Version: 6.00 Build 0)  -->
<svg version="1.1" id="Capa_1" xmlns="http://www.w3.org/2000/svg" xmlns:xlink="http://www.w3.org/1999/xlink" x="0px" y="0px"
	 viewBox="0 0 100 100" enable-background="new 0 0 100 100" xml:space="preserve">
<path fill="#1E1E1C" d="M71.6,59.2c-1.1-1.3-2.3-2.3-3.7-3c0-0.1,0-0.1,0-0.2c0-4.5,1.7-12.7-2.4-16c-0.7-0.6-1.6-1-2.5-1.3
	c0.2-2.5,0.3-5,0.3-7.6c0-0.1,0-0.2,0-0.3c0.2-0.2,0.3-0.5,0.5-0.8c0.1-0.3-0.1-0.6-0.4-0.6c0.1-0.9,0.1-1.9-0.4-2.6
	c-1-1.4-3.7-1.9-6.3-2.1c1.6-1.5,2.8-3.9,1-5.4c-1.5-1.3-3.4-0.3-3.8,1.3c-1.3-1.2-3.5-2.2-4.6-0.5c-1,1.5,0.5,3.2,2.1,4.2
	c-2.8-0.3-6.4-0.9-8.5,1.3c-2.8,3-2.3,9.5-1.3,13.2c-2.2,0.3-4.2,1-5.6,2.6c-3.2,3.6-1.6,11.1-0.9,15.5c-1.9,0.3-3.8,0.7-5.3,1.7
	c-5.7,3.6-5.5,14.2-4.9,20c0,0.2,0.1,0.3,0.3,0.4c-0.1,0.3,0.1,0.6,0.5,0.6C41.2,81.1,57.4,80.8,73,80c0.7,0,0.9-0.9,0.5-1.3
	c0.2-0.1,0.3-0.3,0.4-0.5C75,71.8,75.9,64.6,71.6,59.2z M51.6,20.6c1-0.2,2,0.7,2.5,1.5c0.3,0.5,0.9,0.1,0.8-0.3
	c-0.2-0.6,0-1.2,0.4-1.6c0.4-0.1,0.8-0.2,1.3-0.3c2.1,0.7,0.5,2.6-0.3,3.2c-0.6,0.5-1.3,0.9-1.8,1.5c-0.1,0-0.2,0-0.3,0
	c0-0.1-0.1-0.2-0.3-0.3c-1.1-0.6-2.1-1.4-2.8-2.5C50.6,21.1,50.7,20.8,51.6,20.6z M44.4,27.4c2.3-2.7,7.3-1.3,10.6-0.9
	c0.3,0,5.4,0.4,6.1,0.9c1,0.8,0.9,1.9,0.8,3c-0.6,0.4-1.2,0.7-2.1,0.7c-1.3-0.1-2.1-1-2.9-1.9c-0.1-0.2-0.3-0.1-0.4,0
	c-0.2,0-0.3,0-0.4,0.2c-0.5,0.8-1,1.6-2,1.6c-1.1,0-2-1-2-2c0-0.3-0.3-0.3-0.5-0.2c-0.2-0.3-0.6-0.3-0.8,0c-0.4,0.7-1,1.4-1.8,1.5
	c-0.9,0-1.9-0.7-2.1-1.6c0,0,0,0,0,0c-0.1-0.3-0.6-0.5-0.8-0.2c-0.5,0.5-1.1,1.2-1.8,1.5c-0.4,0.1-0.8,0.1-1.2-0.2
	C43.4,28.9,43.8,28.1,44.4,27.4z M42.7,30.9c0.2,0.1,0.5,0.3,0.7,0.3c1.4,0.3,2.6-0.7,3.2-1.8c0.5,2.4,4.1,2.6,5,0.3
	c0.1,1.2,1,2.3,2.3,2.4c1.1,0.2,2.5-0.5,3-1.6c1,1.7,3.3,2.2,5.1,1.5c0.1,2.2,0.2,4.4,0.4,6.6c-4-0.9-9.3,0.1-12.7,0.1
	c-2.1,0-4.7-0.2-7.2,0.1C42.3,36.3,42,33.4,42.7,30.9z M50.5,40.4c3.4-0.1,8.5-1,11.8,0.1c1.6,0.5,2.5,1.8,3.1,3.4
	c-0.1,0-0.2,0-0.3,0.1c-0.5,0.3-1,0.7-1.6,0.5c-0.5-0.2-0.8-0.7-0.9-1.3c0-0.1,0-0.1,0-0.2c0-0.3-0.2-0.4-0.4-0.5
	c-0.2-0.1-0.5,0-0.6,0.3c0,0,0,0.1,0,0.1c-1,1.6-3.6,2.8-4.5,0c-0.2-0.5-1-0.6-1.1,0c-0.7,2.4-3.4,2.7-4.6,0.5
	c-0.2-0.4-0.9-0.2-0.9,0.2c-0.3,0.5-0.6,1-1.1,1.3c-2.3,0.1-3.3-0.6-3-2.3c0.1-0.4-0.6-0.6-0.8-0.2c-0.4,0.7-0.8,1.4-1.4,2
	c-1.1,0.9-3.8,1.2-3.4-1c0.1-0.6-0.8-0.9-0.9-0.3c0,0.1,0,0.2,0,0.3c-0.2,0-0.4,0.1-0.5,0.3c-0.5,1.4-2,1.8-2.9,1
	C38.5,39.2,46.1,40.5,50.5,40.4z M36.1,46c1.3,0.9,3.2,0.5,3.9-1c0.4,0.9,1.3,1.5,2.4,1.6c1.6,0.1,2.8-1,3.5-2.3
	c1,2.2,4.2,2.7,5.2,0.6c1.5,2.1,4.5,1.8,5.7-0.4c1.4,1.5,3.9,1.7,5.1,0.3c0.2,0.4,0.6,0.8,1.1,1c0.9,0.4,2.2,0.2,2.8-0.6
	c0.8,3.4,0.3,7.8,0.5,10.4c-3.9-1.2-8.4-0.7-12.5-0.5c-4.5,0.3-9.1,0.7-13.6,1.4c-1.2,0.2-2.5,0.3-3.8,0.4
	C36.2,53.6,35.5,49.2,36.1,46z M32,59.7c5.8-2.3,13.7-2.1,19.8-2.5c5.3-0.3,13.1-1.7,17.2,2.5c0.3,0.4,0.6,0.7,0.9,1.1
	c-0.9,0.4-1.4,1.3-2.4,1.7c-0.5,0.2-1.1,0.3-1.7,0.2c-0.6-0.1-1.8-0.6-1.5-1.4c0.1-0.3,0-0.7-0.3-0.8c-0.2-0.3-0.7-0.4-0.9,0
	c-0.6,0.8-1.2,1.6-2.2,1.8c-1.5,0.3-2.9-0.4-3.3-2c-0.2-0.6-1.1-0.6-1.3,0c-0.4,1.7-2.8,2.2-3.8,0.7c-0.2-0.3-0.6-0.2-0.8,0
	c-0.2,0-0.3,0-0.4,0.2c-1,2-3.7,2.7-4.7,0.4c0-0.3,0-0.6-0.2-1c-0.1-0.2-0.4-0.2-0.5-0.1c-0.6,0.7-0.7,1.6-1.7,1.9
	c-1.2,0.4-2.3-0.5-2.5-1.7c-0.1-0.6-1-0.7-1,0c0,0.2,0,0.3,0.1,0.5c-0.1-0.2-0.5-0.2-0.6,0.1c-1.1,2.4-2.6,2.4-4.2,0
	c-0.1-0.3-0.5-0.4-0.7-0.2c-0.7,0.7-1.5,1.3-2.4,1.6c-0.4,0.1-0.7,0.2-1.1,0.2c-1.2,0.2-1.9-0.4-2.1-1.9
	C30.3,60.7,31.1,60.1,32,59.7z M72.1,78.5c-15.4-0.1-30.9-0.4-46.3,0.2c0.1-4.2,0-11.3,2.6-15.6c0.3,0.6,0.9,1.1,1.6,1.4
	c2.1,0.7,4.3-0.3,5.5-1.9c1.5,2,4.6,2.3,5.2-0.8c0,0,0,0,0,0c0.4,1.4,1.6,2.4,3.1,2.3c0.9-0.1,2.3-0.9,2.6-2c1,2.3,4.5,2.6,5.4,0.1
	c1.3,1.9,3.9,1.7,5.1,0c0.7,1,1.8,1.8,3.2,1.9c1.2,0.1,2.4-0.4,3.2-1.3c0.5,0.9,1.7,1.6,2.7,1.7c1.4,0.1,4.2-0.7,4.7-2.4
	c2.6,4.6,1.8,10.7,1.2,15.8C71.9,78.1,72,78.3,72.1,78.5z"/>
</svg>
