<?xml version="1.0" encoding="utf-8"?>
<!-- Generator: Adobe Illustrator 18.1.0, SVG Export Plug-In . SVG Version: 6.00 Build 0)  -->
<svg version="1.1" id="Capa_1" xmlns="http://www.w3.org/2000/svg" xmlns:xlink="http://www.w3.org/1999/xlink" x="0px" y="0px"
	 viewBox="0 0 100 100" enable-background="new 0 0 100 100" xml:space="preserve">
<g>
	<path fill="#1E1E1C" d="M77.6,49.7c-2.5-4.5-11.2-3.2-15.3-3.3c-4.5-0.2-9.1-0.3-13.6-0.4c0,0,0,0,0,0c0.1-1.3,0.3-2.6,0.1-3.9
		c2.7,0,5.3-0.1,7.8-0.4c0.3,0,0.5-0.3,0.5-0.5c0.1,0.1,0.3,0.3,0.4,0.4c0.1,0.1,0.3-0.1,0.2-0.2C57.2,39.3,58,36,58,33.7
		c0-2.9,0.1-5.8-0.3-8.7c0-0.3-0.5-0.4-0.6-0.1c-0.6,3.5-0.7,7.1-0.7,10.7c0,1.6-0.4,3.7,0.4,5.1c0,0,0,0,0,0
		c-6.6-1.1-14.1-0.5-20.8-0.1c-0.5,0-0.4,0.7,0,0.7c2.7,0.2,5.5,0.5,8.4,0.7c0,0,0,0.1,0,0.1c0.1,1.3,0,2.5,0.3,3.8
		c0,0.1,0.1,0.1,0.1,0.2c-3.3-0.1-6.5-0.1-9.8-0.2c-0.6,0-1.4-0.1-2.2-0.1c0-0.8-0.4-1.6-1-2.2c-1.2-1-2.8-1-4.3-1
		c-0.2,0-0.5,0.2-0.5,0.4c-0.1,0.9-0.1,1.9,0.4,2.7c0,0,0,0,0,0c-2.5,0.3-4.7,1.3-5.3,4c0,0.2,0,0.3,0,0.4c0,0,0,0,0,0
		c-0.5,4.7-0.5,9.4-0.5,14.1c0,2.7-0.9,7,0.5,9.5c2.5,4.4,13.1,2.9,17.1,3c9.1,0.2,18.2,0.1,27.3-0.4c4.8-0.2,10.8,0.7,11.4-5.4
		c0.4-4.4,0.2-9,0.3-13.4C78.2,55,78.8,51.9,77.6,49.7z M45.4,45.8c0.2-1.2,0.2-2.5,0.3-3.8c0,0,0,0,0,0c0.7,0,1.5,0.1,2.2,0.1
		c-0.1,1.3,0,2.6,0.1,3.9c0,0,0,0,0,0c-0.9,0-1.8,0-2.7-0.1C45.3,45.9,45.3,45.8,45.4,45.8z M27.9,43.5c1.5,0,3.5,0.4,3.7,2
		c-1.2-0.1-2.5-0.1-3.8,0c0,0,0.1-0.1,0.1-0.1C27.8,44.8,27.8,44.2,27.9,43.5z M76.2,61c-0.1,2.5,0.4,5.9-0.3,8.2
		c-1.3,4.8-5.4,4.7-9.5,5c-2.9,0.2-5.9,0.3-8.8,0.4c-5.9,0.2-11.7,0.2-17.6,0.1c-2.9-0.1-5.9-0.1-8.8-0.2c-1.2,0-2.8,0.1-3.9-0.2
		c-5-1.4-4.3-3.3-4.3-6.4c0-4.8,0.1-9.7-0.1-14.5c1.7,0.3,3.3,0.5,5,0.6c1.8,0.2,3.7,0.5,5.5,0.2c-1.4,1.4-2.4,3.1-2.9,5.3
		C29,67.1,35,73.4,42.1,74.5c7,1.1,14-2.8,15.4-10c0.8-3.7-0.4-7.2-2.6-9.8c6.8,0.6,13.9,1.2,20.7,0.8c0.8-0.1,0.8-1.1,0-1.2
		c-0.9-0.1-1.8-0.2-2.7-0.3c0,0,0.1,0,0.1,0c0.3-0.1,0.6-0.4,0.6-0.7c0-1.2,0-2.3,0-3.5c0-0.4-0.3-0.8-0.7-0.7
		C71,49,69.2,49,67.4,49.8c0,0,0,0,0,0c-0.1,0-0.1,0-0.2,0.1c0,0,0,0,0,0c-0.1,0.1-0.1,0.2-0.1,0.3c-0.4,1-0.1,2.5,0.7,3.2
		c0.1,0.1,0.2,0.2,0.3,0.2c-4.6-0.1-9.3,0-13.9,0.2c-1.9-1.9-4.5-3.3-7.3-3.8c-0.4-0.1-0.6,0.1-0.8,0.4c-4.2-0.4-8.8,0.6-11.9,3.3
		c0-0.2-0.2-0.4-0.4-0.5c-1.7-0.6-3.6-0.5-5.4-0.6c-1.8-0.1-3.7-0.1-5.5-0.1c0-0.7-0.1-1.4-0.2-2.2c0.2,0,0.4-0.2,0.5-0.5
		c1.4-4.7,14.1-2.5,17.6-2.4c5.9,0.2,11.7,0.3,17.6,0.5c5.2,0.1,16.2-2,18.1,4.4C77.2,54.7,76.3,58.7,76.2,61z M46.1,51.1
		c0.1,0.1,0.2,0.2,0.4,0.2c15.2,2.8,9.7,25.1-5.3,21.3c-6.7-1.7-11.7-8.9-7.8-15.4C36.2,52.5,41.3,52,46.1,51.1z M69,52.6
		c-0.8-0.4-1.6-0.9-1.6-1.7c0.1,0.1,0.3,0.1,0.4,0.1c1.4-0.3,2.9-0.8,4.4-0.6c0,0.7,0,1.5,0,2.2C71.1,52.8,70,53,69,52.6z"/>
	<path fill="#1E1E1C" d="M46.4,54.2c-0.3,0-0.5,0.3-0.6,0.5c-4-1.3-8.5-0.6-10.8,3.4c-2.6,4.6,0.6,9.7,5,11.8
		c4.5,2.2,9.9,0.4,11.7-4.3C53.2,61.7,51.7,53.8,46.4,54.2z M48.8,66.9c-2.7,3-6.9,2.7-9.9,0.3c-3.1-2.4-4.5-6.3-1.6-9.5
		c2.6-2.9,6.7-2.8,10.1-1.7C51.2,58.1,51.8,63.6,48.8,66.9z"/>
	<path fill="#1E1E1C" d="M57.5,23.4c-6.9-1.1-14.1-0.7-21.1-1.1c-0.2,0-0.3,0-0.3,0.1c-0.3,0-0.5,0.1-0.5,0.4
		c-0.8,5.9-1.5,12.3-0.7,18.2c0,0.3,0.5,0.2,0.5-0.1c0.7-5.8,0.7-11.7,1.3-17.6c6.8,0.8,14,1.9,20.8,1.1
		C57.9,24.4,58.1,23.5,57.5,23.4z"/>
	<path fill="#1E1E1C" d="M54.7,26.9c0-0.2-0.2-0.4-0.4-0.4c-5.2-0.5-10.5-0.6-15.7-0.6c-0.3,0-0.5,0.2-0.5,0.5
		c-0.1,1.8-0.2,3.7-0.3,5.5c0,0.7,0.1,3.5-0.2,5.1c0,0,0,0,0,0c-0.6,0-0.8,0.8-0.5,1.1c-0.2,0.1,0,0.4,0.1,0.3
		c0.1,0,0.2-0.1,0.3-0.1c5.6-0.3,11.1-0.1,16.7,0.4c0.2,0,0.4-0.2,0.4-0.4C54.7,34.5,54.7,30.7,54.7,26.9z M53.1,37.7
		c-0.7,0.4-3.1-0.3-3.8-0.4c-1.1-0.1-2.1-0.2-3.2-0.2c-2.5-0.1-5-0.1-7.5,0c0.5-1.8,0.2-4.5,0.3-5.7c0-0.6-0.1-3.2,0.3-3.7
		c0.7-1,2.4-0.6,3.5-0.5c2.6,0.1,5.2,0.2,7.8,0.2c1.3,0,2.7-0.4,3.5,0.8c0.4,0.7,0,3.1,0,3.8C53.9,33.6,54.6,36.8,53.1,37.7z"/>
</g>
</svg>
