<?xml version="1.0" encoding="utf-8"?>
<!-- Generator: Adobe Illustrator 18.1.0, SVG Export Plug-In . SVG Version: 6.00 Build 0)  -->
<svg version="1.1" id="Capa_1" xmlns="http://www.w3.org/2000/svg" xmlns:xlink="http://www.w3.org/1999/xlink" x="0px" y="0px"
	 viewBox="0 0 100 100" enable-background="new 0 0 100 100" xml:space="preserve">
<g>
	<path fill="#1E1E1C" d="M74.1,70.2C74.1,70.2,74.1,70.3,74.1,70.2c-2.4-3.8-4.5-7.7-6.6-11.7c1.7-2.2,1.9-5.8,1.6-8.3
		c-1-8.8-5.3-17.7-8.3-26c-0.2-0.6-1-0.6-1.3-0.2c0,0,0,0-0.1,0c0-0.1,0-0.2,0-0.3c-0.9-1.6-3.5-2.1-5.3-2c-1.8,0.1-3.4,0.7-4.7,1.9
		c-0.7-1-1.8-1.8-2.7-2.3c-1.5-0.8-3.1-1.1-4.9-0.9c-0.5,0.1-0.4,0.8,0.1,0.8c1.5-0.1,3.1,0.3,4.4,1.1c1,0.6,1.6,1.4,2.2,2.2
		c0,0.1,0,0.1,0,0.2c-2.7-0.8-5.1-1.5-7.3-3.3c-0.1-0.1-0.3-0.1-0.4,0c-0.1-0.1-0.3-0.1-0.4,0.1c-4.3,7.8-8.3,16.1-10.7,24.7
		c-1.2,4.5,0.2,7.7,3.7,9.3c-2.3,4.2-4.2,8.6-5.8,13.1c-2.4-0.5-6.2-0.6-7.3,1.9c-1.4,2.9,3.3,3.9,5.1,4.4c2,0.6,7.3,2.5,9,0.4
		c1.7-2.1-0.8-4.3-2.5-5.4c-0.1-0.1-0.2-0.1-0.2-0.1c1.7-4.4,3.5-8.8,4.7-13.3c8.3,3,11.8-15.5,12.8-25.9c0.9,6.5,2.8,12.8,5.3,18.9
		c1.6,3.7,4.2,11.7,9.7,10.9c0.1,0,0.3-0.1,0.4-0.1c1.7,3.7,3.4,7.8,5.5,11.4c-2,1-5.2,3.3-3.7,5.7C68.1,80,72,78.1,74,77
		c1.9-1,6.1-3.3,5.8-5.9C79.5,68.6,75.4,69.3,74.1,70.2z M29.7,71.8c-0.2,0.7,0.9,1,1.1,0.3c0.1-0.4,0.3-0.7,0.4-1.1c0,0,0,0,0,0
		c1.3,0.8,1.9,0.8,1.4,2.5c-0.4,1.5-0.2,1.3-1.4,1.2c-1.9-0.2-3.8-0.6-5.6-1.1c-0.6-0.2-1.2-0.4-1.9-0.6c-0.6-0.2-1.3-0.5-1.9-0.8
		c0.1-0.6,0.3-1.2,0.4-1.9c1-1,3.3-0.9,4.8-0.8c-0.2,0.7-0.5,1.4-0.7,2.2c-0.2,0.7,0.9,1.2,1.2,0.5c2.5-5.3,4.8-10.9,6.5-16.5
		c0.4,0.1,0.8,0.3,1.3,0.4C33.2,61.2,31.5,66.6,29.7,71.8z M34.9,54c-0.2-0.1-0.3-0.1-0.4,0c-2-1.6-3.5-3.8-3.3-6.7
		c0.2-2.6,1.9-5.9,2.7-8.3c0.7-1.9,1.4-3.8,2.2-5.7c0.1,0,0.2,0,0.3-0.1c0.1,0,0.1-0.1,0.2-0.1c2.9-0.2,5.7,0.8,8.5,0.3
		c0.8-0.1,2.1-0.5,2.8-1.2C46.1,42.3,42.7,57.2,34.9,54z M38.1,32.2c1.1-0.6,2.3-1.1,3.6-1.4c0.9-0.2,1.9-0.3,2.9-0.3
		c0.6,0,1.3,0,1.9,0.1c-0.3,1-0.8,1.5-1.7,1.5C42.7,32.9,40.4,32.2,38.1,32.2z M48.1,30.6C48.1,30.6,48.1,30.5,48.1,30.6
		c-0.7-1.6-3.7-1.2-5-1.1c-2.3,0.2-4.5,0.9-6.4,2.2c1.3-3.2,2.7-6.4,4.2-9.6c2,2,4.9,3.5,7.8,3.2c0.1,0,0.1,0,0.1-0.1
		c0,0.2,0,0.5,0,0.7C48.6,27.2,48.4,28.8,48.1,30.6z M54.4,23.1c1.5,0,2.6,0.6,3.8,1.1c-1.1,0.2-2.2,0.5-3.3,0.5
		c-1.5,0.1-3-0.1-4.5-0.5C51.7,23.5,53,23.1,54.4,23.1z M59.5,24.9c0.7,2.2,1.5,4.5,2.3,6.7c-1-0.7-2.5-1.2-3.2-1.5
		c-2.5-0.9-5.2-1.1-7.7-0.3c-0.3-1.5-0.6-3-0.8-4.5C52.9,26.4,57,26.9,59.5,24.9z M60.8,33c-0.1,1.2-6.3-0.9-9.1-2
		c1.2-0.2,2.5-0.2,3.7-0.1C56.5,31,60.9,31.7,60.8,33z M60.5,56.9c-2-1.5-3.3-5.8-4.1-8c-1-2.5-2-5.1-2.8-7.8
		c-1-3.2-1.7-6.4-2.4-9.6c2.9,1.5,10,4.7,11.4,2.5c0.8,2.3,1.6,4.6,2.4,6.9c0.8,2.3,1.6,4.7,2.1,7.1c0.3,1.5,0.6,3,0.6,4.5
		C67.7,55.3,66.3,61.4,60.5,56.9z M77.8,72.9c-1.1,1.3-2.6,2.3-4.1,3.1c-1,0.6-6.9,3.6-5.5-0.8c0.3-0.8,1.6-2,2.5-2.7
		c0.5,0.7,0.9,1.5,1.5,2.2c0.2,0.3,0.7,0.1,0.6-0.3c-1.5-5-4.5-9.8-7-14.5c0.4-0.2,0.8-0.5,1.1-0.8c1.9,4.8,4.4,9.5,7.3,13.8
		c0.4,0.6,1.4,0.1,1-0.6c-0.3-0.5-0.6-1-0.9-1.5c0.7-0.3,1.6-0.6,2.4-0.4C78,70.7,78.9,71.7,77.8,72.9z"/>
	<path fill="#1E1E1C" d="M54.5,35.2C54.5,35.2,54.5,35.2,54.5,35.2c0.2-0.2,0-0.5-0.3-0.5c-0.9,0.2-0.3,1.7,0.5,1.4
		C55.4,35.9,55.1,35,54.5,35.2z"/>
	<path fill="#1E1E1C" d="M57.4,35.9c-0.1-0.5-0.8-0.3-0.7,0.2c0.1,0.6,0.2,1.1,0.3,1.7c0.1,0.5,0.8,0.3,0.7-0.2
		C57.7,37,57.6,36.4,57.4,35.9z"/>
	<path fill="#1E1E1C" d="M56.7,38.2c-0.3,0-0.7-0.2-0.7-0.6c0-0.4-0.6-0.4-0.6,0c-0.1,0.8,0.6,1.5,1.4,1.3
		C57.2,38.9,57.1,38.2,56.7,38.2z"/>
	<path fill="#1E1E1C" d="M63.9,53.2c0,0.1-0.5,0.4-0.6,0.1c0-0.4-0.6-0.4-0.7,0c-0.1,1.2,2.1,1.3,2-0.1C64.6,52.9,64,52.9,63.9,53.2
		z"/>
	<path fill="#1E1E1C" d="M65.7,50.2c-0.2-0.6-0.8-0.9-1.5-0.8c-0.6,0.1-1,0.6-1,1.2c0,0.3,0.4,0.4,0.6,0.2c0.2-0.3,0.8-0.4,1.1-0.1
		C65.3,51,65.9,50.7,65.7,50.2z"/>
	<path fill="#1E1E1C" d="M61,50.5c-0.1,0.1-0.3,0.2-0.4,0c-0.2-0.4-0.8-0.1-0.6,0.3c0.3,0.7,1.3,0.6,1.6-0.1
		C61.8,50.4,61.2,50.1,61,50.5z"/>
	<path fill="#1E1E1C" d="M37.5,51.3c-0.1,0.7-1.1,0.5-1-0.2c0-0.1-0.1-0.2-0.2-0.1c-0.3,0.5-0.1,1.1,0.5,1.3
		c0.6,0.2,1.1-0.3,1.1-0.9C37.9,51.1,37.5,51,37.5,51.3z"/>
	<path fill="#1E1E1C" d="M38.5,48.5c-0.1-0.1-0.3,0-0.4,0c-0.2,0.2-0.5,0.4-0.7,0.6c-0.3,0.2,0.1,0.7,0.4,0.4
		c0.2-0.1,0.3-0.2,0.5-0.4c0.1,0.1,0.1,0.3,0.1,0.5c0,0.2,0.3,0.3,0.4,0.1C39.2,49.3,38.9,48.8,38.5,48.5z"/>
	<path fill="#1E1E1C" d="M34.8,48.2c-0.9-0.9-2.3,0.9-1.3,1.7c0.2,0.1,0.4-0.1,0.3-0.3c-0.3-0.4,0.2-1,0.7-0.9
		C34.8,48.8,35,48.4,34.8,48.2z"/>
	<path fill="#1E1E1C" d="M43.7,35.9c-0.3-1-1.8-0.7-1.9,0.3c-0.1,0.5,0.7,1,0.9,0.4c0.1-0.1,0.4-0.1,0.5-0.1
		C43.6,36.5,43.8,36.2,43.7,35.9z"/>
	<path fill="#1E1E1C" d="M41.9,39.1c-0.4,0.1-0.6,0.3-1,0.3c-0.4,0-0.8-0.2-1.1-0.5c-0.2-0.2-0.6,0.1-0.4,0.3
		c0.6,0.8,2.2,1.3,2.8,0.3C42.3,39.2,42.1,39,41.9,39.1z"/>
	<path fill="#1E1E1C" d="M45.3,38.7c-0.6,0.1-1.3,0.2-1.6-0.4c-0.2-0.4-0.8-0.3-0.7,0.2c0.2,1.1,2,2,2.7,0.8
		C45.8,38.9,45.6,38.6,45.3,38.7z"/>
</g>
</svg>
