<?xml version="1.0" encoding="utf-8"?>
<!-- Generator: Adobe Illustrator 18.1.0, SVG Export Plug-In . SVG Version: 6.00 Build 0)  -->
<svg version="1.1" id="Capa_1" xmlns="http://www.w3.org/2000/svg" xmlns:xlink="http://www.w3.org/1999/xlink" x="0px" y="0px"
	 viewBox="0 0 100 100" enable-background="new 0 0 100 100" xml:space="preserve">
<g>
	<path fill="#1E1E1C" d="M72,52.1C72,52,72,52,72,52.1c0-1-0.2-2-0.4-2.9C71,46,69.8,43,68.3,40.4c1.4-1.5,2.1-3.4,2.1-5.4
		c0-0.5-0.4-0.7-0.8-0.6c-1.6,0.3-3.2,1-4.4,2.1c-2.6-2.5-5.8-4-9.7-4.1c0,0,0,0,0,0c1.1-1.6,1.7-3.5,1.5-5.7c0-0.2-0.2-0.4-0.4-0.5
		c-0.4-1.7-1.5-3-3.2-3.7c-1.4-0.6-4.2-1-5.3,0.4c-1.4-2.4-3.1-4.9-4.9-6.8c0,0,0,0,0,0c-0.8-2.3-4.4-0.9-5.9-0.5
		c-3.2,1-6.4,2.5-8.8,4.8c-0.1,0-0.2,0-0.3,0c-0.4,0-0.5,0.4-0.4,0.7c-0.4,0.2-0.6,0.6-0.3,1c2.3,3.1,4.7,6,7.2,8.9
		c-1.8,0.8-3.2,3.4-3.1,5.2c0.1,1.4,0.9,2.8,2.1,3.2c0.1,0.2,0.3,0.3,0.6,0.3c1,0.1,2.1,0.1,3.3,0c-1.3,4.8,0,10.9,3.2,15.1
		c-1-0.1-2.1,0.3-2.8,0.9c-0.8,0.9-1.1,2.1-0.7,3.1c-0.6-0.1-1.2,0-1.8,0.1c-1.8,0.5-2.9,2.3-2.4,3.9c-1.1,0-2.1,0.7-2.3,1.8
		c-0.3,0.1-0.5,0.3-0.5,0.7c-0.6,11.1,11,13.3,21.9,11.3c-0.2,2.5-0.4,4.9-0.9,7.4c-0.2,0.8,1,1.1,1.2,0.3c0.7-2.5,0.8-5.3,0.2-7.8
		c2.3-0.5,4.6-1.1,6.7-1.9C59,75.9,59,77.1,59,78.3c0,1.5-0.2,3.1-0.1,4.7c0.1,0.7,1.3,1.1,1.4,0.2c0.5-2.7,0.3-6-0.3-8.8
		c3.4-1.4,6.3-3.2,7.9-5.3C71.4,64.9,72.7,58.4,72,52.1z M65.7,52c-0.5-0.9-0.8-1.8-0.7-2.8c0.6,0.3,1.2,0.6,1.8,0.8c0,0,0,0,0,0.1
		C66.9,51,66.5,51.7,65.7,52z M69.4,48.5c0.2,0.7,0.4,1.4,0.5,2.1c-0.5-0.3-1.1-0.5-1.6-0.8c0,0,0,0,0,0
		C68.6,49.2,69,48.8,69.4,48.5z M68.9,35.8c-0.3,1.2-0.8,2.2-1.6,3.1c-0.5-0.6-1-1.2-1.5-1.8C66.7,36.5,67.8,36,68.9,35.8z
		 M33.8,18.6c0.8-0.4,5.8-3.1,6.9-2.4c1.7,1-1,2.7-1.6,3c-1.2,0.7-2.7,0.9-4.1,1c-1.4,0.1-2.7,0.1-4.1,0.2
		C31.9,19.7,32.8,19.1,33.8,18.6z M28.9,21.8c0.1-0.1,0.3-0.2,0.4-0.3c3.3,0.3,7,0.7,10-0.5c1.1-0.4,2.7-1.6,3.5-2.9
		c0.6,1,1.3,2,1.9,3c0.6,1,1.3,2.1,1.9,3.1C45.2,25.6,44,27,42.2,28c-2,1.1-4,1.5-6.2,1.9c-0.3,0.1-0.3,0.5,0,0.6
		c4.1,0.9,9.3-1.5,11.5-5.2c0.2,0.3,0.5,0.7,0.7,1c0,0,0.1,0.1,0.1,0.1c-1.1,1.6-1.8,3.2-3.6,4.4c-2.2,1.5-4.6,1.8-7.2,1.7
		c-0.1,0-0.2,0-0.3,0.1C34.5,28.9,31.8,25.3,28.9,21.8z M34.5,38.3c-1.1-0.7-1.5-2.1-1-3.3c0.4-1.1,1.4-1.8,2-2.7
		c0.3,0.3,0.6,0.7,0.9,1c0.1,0.2,0.3,0.2,0.5,0.1c0.1,0.1,0.2,0.3,0.3,0.3c2.8,0.9,6.1,0,8.5-1.7c1.9-1.3,4.4-3.9,4-6.4
		c0-0.2-0.3-0.3-0.5-0.3c-0.2-0.3-0.3-0.7-0.5-1c1.1,0,2.2-0.4,3.4,0c1.5,0.5,2.7,1.6,3.4,3c0,0,0,0,0,0c-1.7,3.8-3.8,6.3-7.8,8.1
		C43.5,37.3,39.1,37.9,34.5,38.3z M67.7,66c-6.1,9.5-34.7,15.6-36.2-0.6c0-0.2-0.1-0.3-0.2-0.4c1-2.6,5.8,1.5,6.9,2.3
		c0.4,0.3,0.9-0.3,0.6-0.6c-1.1-1.6-2.9-3.1-4.8-3.6c-0.3-1.8,1.7-3,3.5-2.6c1.9,0.4,3,2.1,4.5,3.2c0.4,0.3,1-0.1,0.7-0.6
		c-0.9-1.6-2.4-3.1-4.1-3.8c-0.3-0.8-0.2-1.8,0.4-2.3c0.8-0.8,2-0.4,2.9-0.2c0.1,0,0.3,0,0.4-0.1c0.9,0.9,2,1.6,3.1,2.1
		c0.4,0.2,0.8-0.3,0.5-0.6c-5.4-5.6-7.9-10.8-6.9-18.6c5.6-0.6,12.6-2.7,16-6.8c0,0.2,0.1,0.3,0.3,0.4c6.5,1.4,11.4,7,13.7,13.7
		c-0.7,0.4-1.3,1-1.7,1.7c-0.8-0.5-1.6-1-2.4-1.4c-0.6-0.3-1.3,0.1-1.3,0.7c0,1.8,0.4,3.5,1.5,5c0.1,0.2,0.4,0.3,0.6,0.3
		c1.2-0.3,2-1.1,2.4-2.2c0.7,0.4,1.5,0.8,2.2,1.2C70.9,57.2,70.2,62.1,67.7,66z"/>
	<path fill="#1E1E1C" d="M55.7,39.7c-1,0.5-1.6,1.5-1.4,2.6c0.2,1,1,2,2.1,2c0.6,0,1-0.8,0.5-1.2c-0.7-0.6-1.1-1.7-0.1-2.2
		c1.3-0.7,2.1,0.8,2.6,1.8c0.2,0.5,1,0.2,1-0.3C60.2,40.2,57.6,38.7,55.7,39.7z"/>
	<path fill="#1E1E1C" d="M60,60c-0.5,0-0.7,0.8-0.1,1c1.4,0.3,2.5,2.2,1.4,3.4c-1,1.1-3.1,0.5-3.5-0.9c-0.1-0.3-0.3-0.4-0.5-0.3
		c-0.2,0-0.4,0.1-0.4,0.3c-0.2,1.3,0.3,2.6-1,3.4c-1.1,0.7-2.1-0.2-1.7-1.4c0.1-0.3-0.1-0.6-0.4-0.6c-0.2-0.2-0.6-0.1-0.8,0.1
		c-0.5,0.9-1.2,1.5-2.3,1.2c-1.3-0.4-1.7-1.8-1.8-3c-0.1-2.2,0.7-4.1,1.6-6c0.2-0.5-0.4-1.1-0.8-0.6c-2.2,2.4-3.7,7.3-1.3,10.1
		c1,1.1,3.3,1.4,4.5,0.6c0,0,0,0.1,0.1,0.1c0.5,0.9,1.4,1.3,2.4,1.2c1.1-0.1,2-0.9,2.4-1.9c0.1-0.3,0.3-0.8,0.3-1.2
		c1.3,0.9,3.2,1,4.3-0.2C64,63.4,62.5,60,60,60z"/>
</g>
</svg>
