<?xml version="1.0" encoding="utf-8"?>
<!-- Generator: Adobe Illustrator 18.1.0, SVG Export Plug-In . SVG Version: 6.00 Build 0)  -->
<svg version="1.1" id="Capa_1" xmlns="http://www.w3.org/2000/svg" xmlns:xlink="http://www.w3.org/1999/xlink" x="0px" y="0px"
	 viewBox="0 0 100 100" enable-background="new 0 0 100 100" xml:space="preserve">
<g>
	<path fill="#1E1E1C" d="M72.9,27.2c-0.3-0.1-0.6,0-0.8,0.2c-0.1-0.1-0.2-0.2-0.4-0.2c-8.4,0.9-28.8-10.6-31.9,4.1
		c-0.8-0.3-1.8-0.1-2.4,0.7c-0.9,1.1-0.4,2.5,0.5,3.1c-4.5,0.6-7.4,3.9-9,8c-1.5-0.8-3.2-0.6-4.7,0.1c-0.3,0.1-0.4,0.5-0.3,0.8
		c0.5,1.5,2,3.6,3.8,3.7c-1,5.6-0.2,11.9,1.5,15.8c3.2,7,9.4,10.7,16.1,11.4c-0.3,3.2,1,6.5,3.5,8.5c0.5,0.4,1.2-0.2,0.7-0.7
		c-2.1-2.2-3.2-4.7-3.4-7.7c1.3,0.1,2.6,0.1,3.9-0.1c0.7,2.9,2.4,6.5,6,5.5c0.6-0.2,0.5-1.1-0.1-1.1c-2.8,0.3-4.1-2.3-4.9-4.6
		c4.4-0.6,8.7-2.4,12.2-5.5c0,0,0.1-0.1,0.1-0.1c2.1-0.1,3.6-2.5,2.5-4.5c-0.6-1-2.1-1.7-3.4-1.7c0.7-1.3,0.7-2.8-0.3-4
		c-0.7-0.9-2-1.5-3.2-1.5c0.2-0.6,0.2-1.3-0.1-2c-0.4-0.9-1.7-1.9-2.8-1.7c0.9-1.9,1.4-4.1,1.5-6.4c1.9,2,4.1,4.4,6.6,5.2
		c1.5,0.4,3.3-0.1,3.8-1.4c1.2-2-0.1-4.4,2.3-5.8c1-0.6,2.5-1.4,2.5-2.6c0.1-0.1,0.2-0.2,0.2-0.3c0.4-1.3,0-2.5-0.3-3.8
		c-0.5-2.2,0.6-3.5,1.9-5c0.2,0.1,0.5,0.1,0.6-0.1C76.7,31.1,75.4,28.2,72.9,27.2z M39.8,35.2c0.5-0.3,0.3-1-0.3-0.9
		c-1.1,0.2-1.6-1.1-0.7-1.7c0.4-0.3,0.7-0.3,1-0.2c0.1,0.1,0.2,0.2,0.3,0.2c0.3,0.2,0.6,0.6,0.7,1c0,0,0,0,0,0
		c0.2,0.3,0.8,0.2,0.7-0.2c0,0,0-0.1,0-0.1c0,0,0,0,0,0c-0.3-0.9,0.7-2.3,1.7-1.7c0.7,0.4,0.7,1.3,0.4,1.9c-0.1,0-0.2,0-0.2,0
		c-0.2,0-0.2,0.3,0,0.3c0,0,0.1,0,0.1,0c0,0.3,0.4,0.5,0.6,0.3c0.1-0.1,0.2-0.3,0.3-0.4c0.2,0.2,0.4,0.2,0.7,0
		c0.5-0.4,1.3-0.1,1.8,0.3c0,0,0,0,0,0c-0.8,0.7-1.5,1.3-2.5,0.8c-0.4-0.2-0.9,0.1-0.8,0.5c0,0,0,0.1,0,0.1c0.2,0.7,0.8,1.2,0.8,1.9
		c-0.2,0.2-0.3,0.4-0.2,0.7c-0.2,0.3-0.4,0.4-0.8,0.5c-0.7,0.1-0.8-0.5-0.8-1.1c0-0.7-0.1-1.2-0.7-1.6c-0.3-0.2-0.7,0.2-0.6,0.5
		c0,0-0.1,0.1-0.1,0.1c-0.6,0.7-1.2,1.7-2.3,1.2c-0.7-0.3-0.8-1.1-0.4-1.6c0.3-0.1,0.6-0.3,0.8-0.4c0.1,0,0.1,0,0.2,0
		C39.8,35.9,40.1,35.4,39.8,35.2z M47.1,32.9c0.1-0.2,0.1-0.4-0.1-0.6c-0.3-0.2-0.3-0.6-0.1-0.9c0.2-0.5,0.8-0.5,1.2-0.3
		c1.1,0.5,1,1.8,1.2,2.7c0.1,0.3,0.4,0.2,0.5,0c0.1,0,0.3,0,0.4-0.1c0.6-0.5,2.2-1.1,2.7-0.2c0,0,0,0.1-0.1,0.1
		c-0.1,0.2,0,0.4,0.1,0.5c-0.2,0.5-0.7,0.9-1.2,1c-0.8,0.2-1.5-0.1-2.3,0.1c-0.2,0.1-0.3,0.3-0.3,0.5c-0.1,0.2-0.1,0.5,0.2,0.6
		c0.7,0.2,1.1,1.5,0.5,2.1c-0.3,0.3-0.8,0.2-1.2,0c-0.4-0.3-0.6-0.8-0.6-1.3c0-0.6-0.8-0.8-1.1-0.3c-0.1,0.2-0.1,0.3-0.2,0.5
		c-0.3,0.1-0.7,0.2-1,0.2c-0.2,0-0.3,0-0.4-0.1c0-0.3-0.1-0.6-0.2-0.9c1.2,0,2.4-0.7,2.3-1.8c0.1-0.1,0.2-0.2,0.2-0.3
		C47.8,33.7,47.5,33.2,47.1,32.9z M55.6,36.7c0.5,0,0.9-0.1,1.4,0.3c0.4,0.3,0.6,0.9,0.3,1.3c-0.5,0.7-1.8,0.5-2.2-0.3
		c-0.2-0.4-0.9-0.1-0.7,0.3c0,0.1,0.1,0.2,0.1,0.2c0,0,0,0-0.1,0c-0.3-0.2-0.6-0.1-0.7,0.3c-0.1,0.7-0.7,1.5-1.5,1.5
		c-0.6,0-1-0.4-1.4-0.9c0.9-0.9,0.8-2.3,0.1-3.2c1.5,0,3.1-0.9,3.1-2.4c0.5-0.6,1.4-0.9,2-0.3c0.6,0.6,0.2,1.7-0.4,2.1
		c-0.1,0.1-0.2,0.1-0.3,0.2C55.1,36.3,55.3,36.7,55.6,36.7z M27.9,46.7c-0.5-0.3-1-0.6-1.4-0.9c-0.4-0.4-0.8-0.9-1-1.4
		c1-0.3,2-0.2,3-0.1C28.3,45,28.1,45.8,27.9,46.7z M56.6,54.9c0.5,0.2,1,0.5,1.2,1c0.3,0.6,0.2,1.3,0,1.8c-0.4,0.2-0.8,0.4-1,0.8
		c-0.1,0.2,0,0.4,0.2,0.5c0.1,0.2,0.3,0.3,0.6,0.2c0.2-0.1,0.3-0.2,0.4-0.3c1.2-0.3,2.4-0.5,3.4,0.6c1,1,0.8,2.7,0.1,3.8
		c-0.4,0.2-0.8,0.6-1,1.1c-0.2,0.5,0.5,0.8,0.9,0.7c0.6-0.2,1-0.6,1.7-0.5c0.6,0,1.2,0.3,1.5,0.9c0.6,1.2-0.6,2.9-1.8,3.1
		c-0.2,0-0.2,0.2-0.2,0.3c-10.2,6.4-24.7,7.3-31.1-5c-4.5-8.6-2.7-21.7,5.7-27c0,0.4,0.2,0.8,0.5,1.2c1,1.2,3,1.1,4,0
		c0,0.4,0.1,0.8,0.4,1.1c0.6,0.6,1.6,0.7,2.3,0.4c0.4-0.2,0.8-0.5,1-0.9c0.4,0,0.8-0.1,1.2-0.3c0.2-0.1,0.5-0.3,0.6-0.4
		c0.3,1.1,1.5,1.9,2.7,1.8c0.2,1.1,1.4,2,2.6,1.9c0.8-0.1,1.5-0.5,1.9-1.1c0.8,2.3,1.5,4.4,1.5,6.9c0,3.3-1.1,6.1-2.4,9.1
		c-0.1,0.3,0.2,0.6,0.5,0.4c0.7-0.7,1.3-1.5,1.9-2.4C56,54.8,56.3,54.8,56.6,54.9z M71.3,36.2c-0.7,2,0.8,3.6,0.8,5.5
		c-0.1,0-0.2,0.1-0.3,0.3c-0.7,2.1-3.2,2-4.1,3.9c-0.6,1.2-0.4,2.6-0.4,4c0,0-0.1,0.1-0.1,0.1c-1.4,3.6-7.4-2-9.7-3.9
		c-0.1-2.4-0.8-4.7-2.2-6.5c1,0.5,2.2,0.3,2.8-0.7c0.5-0.8,0.2-1.8-0.4-2.4c-0.2-0.2-0.5-0.5-0.9-0.6c0.7-0.8,0.7-2.2,0-3
		c-0.8-0.9-2.4-0.9-3.3-0.2c-0.8-0.9-2.5-0.5-3.5,0.1C50,31.4,49,30.1,47.5,30c-1.4,0-2.1,1.4-1.6,2.4c-0.5,0-1,0.1-1.4,0.4
		c0.1-0.9-0.5-1.9-1.4-2.2c-1.1-0.3-2,0.4-2.4,1.3c-0.1-0.1-0.1-0.1-0.2-0.2c5.4-14.4,21.4-1.3,31.3-3.5c0,0,0,0,0.1,0
		c0.1,0.2,0.2,0.5,0.5,0.6c1.5,0.5,2.5,2.1,2.3,3.7c0,0-0.1,0-0.2,0.1C73.3,33.5,71.9,34.7,71.3,36.2z"/>
	<path fill="#1E1E1C" d="M37.2,45.9c-0.5-0.9-1.5-1.6-2.5-1.5c-2,0.1-3.2,2.8-1.6,4.2c0.5,0.4,1-0.2,0.6-0.6
		c-0.6-0.8,0.2-2.3,1.2-2.3c0.6,0,1.1,0.5,1.3,1c0.3,0.6,0,1.2,0.2,1.8c0.1,0.3,0.4,0.4,0.7,0.3C38,48.1,37.7,46.7,37.2,45.9z"/>
	<path fill="#1E1E1C" d="M49.9,60.9c-0.4,0.1-0.3,0.7,0.1,0.7c0.9,0.1,1.3,1.3,0.9,2c-0.5,0.9-1.8,1-2.7,0.6c-0.5-0.2-1,0.6-0.5,0.8
		c0.1,0,0.1,0.1,0.2,0.1c1.5,1.3,0.6,3.3-1.2,3.6c-0.8,0.2-1.7-0.1-2.4-0.5c-0.3-0.1-1.5-0.9-1.8-1.5c0-0.2,0-0.3,0-0.5
		c0,0,0-0.1,0.1-0.1c0.3-0.3-0.1-0.8-0.4-0.6c-0.3-0.2-0.7-0.1-0.7,0.3c0,2.1-2.4,1.8-3,0.2c-0.5-1.4,0.1-3,0.6-4.4
		c0.2-0.5-0.6-0.8-0.8-0.3c-1,2.2-2.1,5.6,0.7,7.1c1,0.5,2.4,0.1,3.1-0.7c0.1,0.2,0.3,0.4,0.4,0.5c1.2,1.1,2.8,1.9,4.4,1.7
		c1.4-0.2,2.6-1.1,3-2.4c0.2-0.8,0.1-1.5-0.3-2.1c1-0.1,2-0.5,2.4-1.5C52.7,62.5,51.5,60.6,49.9,60.9z"/>
</g>
</svg>
