<?xml version="1.0" encoding="utf-8"?>
<!-- Generator: Adobe Illustrator 18.1.0, SVG Export Plug-In . SVG Version: 6.00 Build 0)  -->
<svg version="1.1" id="Capa_1" xmlns="http://www.w3.org/2000/svg" xmlns:xlink="http://www.w3.org/1999/xlink" x="0px" y="0px"
	 viewBox="0 0 100 100" enable-background="new 0 0 100 100" xml:space="preserve">
<path fill="#1E1E1C" d="M72.3,43.3c-0.1-0.6-0.9-0.6-0.9,0c-0.3,8.3-0.2,16.6-0.3,24.8c0,1.1,0.6,4.8-0.1,5.7
	c-1.3,1.9-4.1,1.2-6.1,1.3c-3.3,0.1-6.5,0.2-9.8,0.3c0.3-1-0.1-2.3-0.1-3.3c-0.1-3.5-0.2-7-0.3-10.4c-0.2-5.9,0.5-13.1-1.3-18.8
	c2.5-0.1,5.1-0.2,7.6-0.3c0.8,0,10.5-0.8,10.1,0.2C71,43,71.2,43.1,71.3,43c0.7-1.3-1.5-1.8-4.5-2c1.5-4.8,2.7-15.5-4.2-17
	c-7.1-1.5-11.3,7.1-13,12.5c-0.3-0.1-0.5-0.1-0.8-0.1c-0.8-5.2-5.7-12.9-11.7-11.5c-7.8,1.8-6.9,11.5-4.6,17.1c0,0,0,0.1,0.1,0.1
	c-2.2,0.3-4.1,1.1-4.6,3.7c-0.1,0.3,0.1,0.5,0.2,0.7c-0.7,10.2,0.2,20.4,1.1,30.6c0,0.4,0.3,0.7,0.7,0.7c13.9-0.1,27.8-0.7,41.8-1
	c0.5,0,0.9-0.4,0.9-0.9C73,65,73.3,54.1,72.3,43.3z M66.3,40.9c-5-0.3-12.2,0.3-13.3,0.3c-0.2,0-0.4,0-0.6,0c0-0.4,0-0.9-0.1-1.3
	c1.4,0.2,2.8,0,4-0.7c0.4-0.2,0.1-0.9-0.3-0.8c-1.3,0.4-2.7,0.6-4,0.5c-0.1-0.1-0.1-0.3-0.2-0.4c-0.1-0.3-0.3-0.6-0.6-0.9
	c5-0.8,14-3.6,14.3-9.2C67.1,31.9,66.3,37.9,66.3,40.9z M60.9,25.5c1.8-0.1,3,0.5,3.8,1.6c0,0-0.1,0.1-0.1,0.2
	c-1.4,5.9-8.5,8.1-13.9,9.2C52.8,32,55.3,25.8,60.9,25.5z M48.5,37.9c0.2,0,0.3,0,0.5,0c0.2,0,0.3-0.1,0.3-0.3
	c0.8,0.2,1.3,1.5,1.5,2.1c0.1,0.5,0.1,0.9,0.2,1.4c-0.7,0-1.3,0-2,0c-0.3-0.6-0.7-1.4-0.8-2.1c0.1-0.2,0.1-0.4,0-0.5
	C48.2,38.4,48.3,38.1,48.5,37.9z M36.7,26.6c5.9-2.2,9.6,5.6,11.2,10.1c-0.1,0.1-0.2,0.2-0.2,0.2C45,36,42.4,34.8,40.1,33
	c-2-1.6-3.2-3.9-4.9-5.6C35.7,27.1,36.2,26.8,36.7,26.6z M34,28.4c0.8,2.4,3.4,4.6,5.2,6c2.4,1.8,5.1,3,8,3.4
	c-0.1,0.3-0.2,0.6-0.1,0.9c0,0.1,0,0.1,0,0.2c-1,0.2-2.1,0-3-0.3c-0.4-0.2-0.8,0.5-0.4,0.7c1.1,0.9,2.4,1,3.6,0.5
	c0.2,0.6,0.6,1.1,0.9,1.5c-4.7,0.1-9.5,0.1-14.1,0.5c-0.2,0-0.3,0-0.5,0c0-0.1,0-0.2,0-0.3C32.3,37.6,31,31.7,34,28.4z M40,75.9
	c-2.1,0.1-4.9,0.6-7,0.2c-3-0.6-2.6-2.1-2.8-4.9c-0.6-8.2-0.8-16.5-1-24.7c0.1-0.1,0.2-0.2,0.2-0.4c1-3.3,10.7-3.4,17.2-3.3
	c-1.5,10.8,0.8,22,1.5,32.8C45.4,75.8,42.7,75.8,40,75.9z M51.9,75.6c-0.9,0-1.7,0.1-2.6,0.1c0-10.9-1.4-21.8-1.7-32.8
	c1.9,0,3.5,0.1,4.3,0.1c0.3,0,0.7,0,1,0c-1.5,5.8-0.3,12.8-0.2,18.7c0.1,4.6,0.4,9.4,0.9,13.8C53.1,75.5,52.5,75.5,51.9,75.6z"/>
</svg>
