<?xml version="1.0" encoding="utf-8"?>
<!-- Generator: Adobe Illustrator 18.1.0, SVG Export Plug-In . SVG Version: 6.00 Build 0)  -->
<svg version="1.1" id="Capa_1" xmlns="http://www.w3.org/2000/svg" xmlns:xlink="http://www.w3.org/1999/xlink" x="0px" y="0px"
	 viewBox="0 0 100 100" enable-background="new 0 0 100 100" xml:space="preserve">
<g>
	<path fill="#1E1E1C" d="M37.6,74.9c-0.5,0.6-1,1.4-1.6,1.9c-1.4,1.1-1,0.8-2.3-0.4c-1.5-1.3-3-2.7-4.5-3.9
		c-2.8-2.3-5.7-4.5-8.8-6.4c-0.7-0.4-1.5,0.6-0.9,1.1c4.6,3.8,9.1,7.7,13.6,11.5c2.8,2.4,4-0.2,5.9-2.7
		C39.8,75.2,38.3,74.1,37.6,74.9z"/>
	<path fill="#1E1E1C" d="M44.9,41.8c0-0.2-0.1-0.3-0.2-0.4c-2.2-2.7-6.8-1.1-8.6,1.3c-1.8,2.3-1.8,5.1-0.7,7.5
		c-2.3-0.8-5.2-0.3-6.9,1.1c-2.5,2-3.2,5.5-1.9,8.2c0,0,0,0.1,0,0.1c1.6,8.8,15.3,8.6,21.5,7.2c0.6-0.1,0.4-1-0.1-1
		c-4,0-8.1,0.4-12-0.7c-3.5-1-5.3-2.9-7.6-5.2c-1-2.4-0.7-5.5,1.5-7.1c1.1-0.7,2.4-1,3.7-0.8c1.6,0.2,2.6,1.1,3.9,1.8
		c0.5,0.3,1.2-0.2,1-0.8c-0.2-0.6-0.6-1.2-1.1-1.6c-1-2.3-1.3-5.1,0-7.2c1.5-2.3,4-2.4,6.3-1.7c5.5,6.6,6.1,13.7,6.6,22.2
		c0.1,1.2,1.7,1.1,1.8,0C52.9,56.2,52.2,47,44.9,41.8z"/>
	<path fill="#1E1E1C" d="M69.9,45.7c-4.4-7.3-12-13-18-19c-0.9-0.9-2.3,0.5-1.4,1.4c5.1,5,11.9,10.1,16.2,16.2
		c-6.9-2.6-14.3-4.6-20.8-7.9c-0.9-0.5-1.7,0.8-0.8,1.4c6.7,4.6,16,6.8,23.7,9.3C69.7,47.4,70.3,46.4,69.9,45.7z"/>
	<path fill="#1E1E1C" d="M79.3,32.3c-2.2,1.9-3.8,4.6-6.8,3c-1.2-0.6-2.3-1.7-3.5-2.8c0,0,0,0,0.1,0c1,0,1.5-1,2.2-1.6
		c0.7-0.6,1.6-1.1,2.1-1.9c0.5-0.6-0.3-1.5-1-1.3c-1,0.3-1.8,1.1-2.4,1.9c-0.6,0.7-1.6,1.6-1.3,2.5c-0.7-0.7-1.4-1.4-2.1-1.9
		c-3.6-2.8-7.2-5.4-11.1-7.7c0.1-0.1,0.2-0.2,0.3-0.4c0.2-0.3,0.4-0.6,0.6-0.9c0.5-0.6,1.3-1,1.7-1.6c0.4-0.7-0.3-1.4-1-1.3
		c-0.9,0.2-1.6,1.1-2.1,1.9c-0.4,0.6-0.8,1.4-0.7,2.1c-0.4,0.3-0.6,0.9,0,1.3c6.1,4.6,11.9,9.6,18,14.3c3.5,2.8,6-1.6,8.6-4.3
		C81.7,32.8,80.3,31.4,79.3,32.3z"/>
</g>
</svg>
