<?xml version="1.0" encoding="utf-8"?>
<!-- Generator: Adobe Illustrator 18.1.0, SVG Export Plug-In . SVG Version: 6.00 Build 0)  -->
<svg version="1.1" id="Capa_1" xmlns="http://www.w3.org/2000/svg" xmlns:xlink="http://www.w3.org/1999/xlink" x="0px" y="0px"
	 viewBox="0 0 100 100" enable-background="new 0 0 100 100" xml:space="preserve">
<path fill="#1E1E1C" d="M80.7,53C80.7,53,80.7,53,80.7,53c0.2-3-1-5.8-2.2-8.5c-0.9-2.1-2-5.4-4-6.9c-3.8-2.9-7.6,2.2-9.7,5.7
	c-0.4-0.8-1-1.6-1.7-2.4c-4.8-5.3-11.9-1.1-13.6,4.6c-2.7-5.1-10.1-7.5-14.2-2c-0.2,0.3-0.4,0.6-0.6,0.9c-2-2.1-5.3-4.1-8.2-3.3
	c0,0,0,0,0,0c-3.1,0.5-4.5,3.1-5.4,5.8c-1.1,3.1-3,8.6-1.6,11.9c0.8,1.9,2.7,2.5,4.4,1.3c1-0.7,1.7-1.7,2.3-3
	c1.7,0.3,3.5-0.4,4.7-1.6c1.2,0.3,3,0.2,3.9-0.8c0.3,0.7,0.6,1.3,0.9,1.9c2.6,4.1,8.8,7.3,13.4,8.3c0.2,0,0.4,0,0.5-0.1
	c0.2,0.4,0.7,0.7,1.1,0.4c3.6-2.6,9.8-7,12.9-12c0.6,0.9,1.6,1.4,2.6,1.7c0.7,0.2,1.4,0.1,2.2-0.1c0.4,0.2,0.8,0.4,1.2,0.6
	c1.6,0.5,3.1,0,4.3-1.1c0.8,1,1.8,2,2.9,2.5c1.2,0.5,2.4,0.1,3.2-0.9C80.7,54.9,80.8,54,80.7,53z M33,54.3c-0.4,0.1-0.8,0.2-1.2,0.2
	c0.8-1.3,1.1-2.8,0.6-4.3c-0.2-0.6-1.1-0.5-1.1,0.2c0,3.1-1.6,5.2-4.5,5.8c0.8-2.1,1.2-4.4,1.4-6c0.1-0.7-0.8-1-1.1-0.3
	c-0.7,1.8-1.1,4-2,5.7c-0.8,1.4-3.5,4.4-4.2,1.8c-0.3-1.1,0.2-3,0.3-3.8c0.7-3.9,1.7-8.8,5.1-11.3c1.3,0.5,2.8,0.6,4.1,1.1
	c1.5,0.5,2.8,1.2,4,2.2c-0.8,2.4-0.6,5.5,0.1,8.1C34,53.7,33.6,54.1,33,54.3z M62.7,51.2c-2.3,5.5-8.7,8.7-12.9,12.7
	c-0.1,0.1-0.1,0.2-0.2,0.2c0,0,0,0-0.1,0c-5.2-3.4-11.8-5.5-13.2-12.3c-0.8-4,0.1-8.7,4.8-9.3c4.9-0.6,6.8,3.7,8,7.4
	c0.2,0.7,1.3,0.6,1.4-0.2c0-0.6,0-1.1-0.1-1.7c0.6-3.3,2.3-6.6,5.9-7.4C62.6,39.3,64.6,46.6,62.7,51.2z M78,54.9
	c-1.3,0.1-2.2-1.2-3-2.1C73.6,51,72.5,49,71.5,47c-0.3-0.7-1.5-0.2-1.3,0.5c0.5,2,1.4,3.7,2.6,5.4c0.2,0.2,0.3,0.5,0.5,0.7
	c-1,0.6-2.1,0.6-3.1,0.2c0.1-0.3-0.1-0.7-0.4-0.6c-0.2,0.1-0.3,0.1-0.5,0.1c-0.9-0.6-1.7-1.6-1.9-2.9c-0.1-0.7-1.1-0.5-1.2,0.2
	c0,0.9,0.2,1.7,0.6,2.5c-0.1,0-0.1,0-0.2-0.1c-0.9-0.3-1.5-0.9-2.2-1.4c1.2-2.3,1.6-4.7,0.8-7.2c1-1.3,2-2.6,3.2-3.7
	c0.5-0.6,1.1-1.1,1.8-1.6l3.2,0.7c0.3,0.2,0.5,0.4,0.7,0.7c0.3,0.4,0.6,0.8,0.9,1.2c0.2,0.3,0.4,0.7,0.6,1c1.6,3.3,2.6,6.6,3.7,10.1
	C79.4,53.9,79.1,54.7,78,54.9z"/>
</svg>
