<?xml version="1.0" encoding="utf-8"?>
<!-- Generator: Adobe Illustrator 18.1.0, SVG Export Plug-In . SVG Version: 6.00 Build 0)  -->
<svg version="1.1" id="Capa_1" xmlns="http://www.w3.org/2000/svg" xmlns:xlink="http://www.w3.org/1999/xlink" x="0px" y="0px"
	 viewBox="0 0 100 100" enable-background="new 0 0 100 100" xml:space="preserve">
<g>
	<path fill="#1E1E1C" d="M78.8,37c-0.2-2-0.3-4.6-2-6c-2.3-1.9-6.5-1.2-9.2-1.2c-9.9-0.1-19.9-0.2-29.8-0.2
		c-5.3,0-14.9-1.8-16.9,4.8c-0.3,0-0.6,0.3-0.6,0.7c-0.1,5.1-0.2,10.2-0.1,15.3c0.1,4.6-0.4,9.6,0.5,14.2c1.2,6.5,6.9,6.1,12.3,6.3
		C43.5,71,54,71.3,64.6,71.6c6.2,0.2,12.7,0.8,14.1-6.7C80.3,55.9,79.9,46.1,78.8,37z M45.5,31.8c6.4,0,12.8,0,19.3,0
		c2.5,0,7.4-0.7,10.1,0.8c-3.2,3.3-6.5,6.4-9.9,9.6c-3.5,3.2-7.5,7.8-11.8,10c-4.5,2.3-7.3,0.2-10.6-2.7c-1.9-1.7-3.8-3.5-5.7-5.2
		c-4-3.7-8-7.4-12.1-11.1c0,0-0.1-0.1-0.1-0.1C29.5,30.2,41.8,31.8,45.5,31.8z M64.6,69.4c-3.3-0.1-6.6-0.2-9.9-0.3
		c-6.3-0.2-12.5-0.4-18.8-0.6c-1.6-0.1-3.3-0.1-4.9-0.2c-3.1-0.1-4,0.2-5.6-1.8c4.9-5,9.8-10.1,14.2-15.6c0.5-0.6-0.3-1.6-0.9-0.9
		c-4.7,5.2-9.2,10.5-14,15.6c-2.3-3.3-1.8-6.5-1.9-10.4c-0.2-6.3-0.5-12.6-0.9-18.9c0.4,0,0.8-0.2,0.9-0.7c0.2-0.7,0.6-1.3,1.2-1.8
		c0,0.1,0,0.2,0.1,0.3c4.7,5.3,9.7,10.3,14.9,15.1c2.9,2.7,6.9,7.7,11.5,7.1c3.5-0.5,7.3-4.2,10.2-6.9c4.9,5.9,9.6,12,14.3,18.1
		C72.3,70,68.5,69.5,64.6,69.4z M77.4,54.2c-0.1,2.8,0.3,8.4-0.9,10.9c-0.1,0.2-0.2,0.3-0.3,0.5c-4.5-6.1-9.4-11.8-14.5-17.3
		c0.1-0.1,0.3-0.3,0.4-0.4c5.1-4.4,9.7-9.1,14-14.3c0.1,0.2,0.2,0.3,0.3,0.5c1.3,2.4,0.8,7.6,0.9,10.5C77.4,47.9,77.5,51,77.4,54.2z
		"/>
	<path fill="#1E1E1C" d="M55,36.8c-2.2-3-4.9-0.4-6.2,2c-1.5-1.4-3.7-1.8-5.6-0.9c-0.3,0.1-0.4,0.4-0.4,0.7c-0.3,3.8,3,7.1,6.8,6.8
		c0.3,0,0.4-0.1,0.5-0.3c0.1,0,0.2,0,0.4-0.1C53.6,43.7,57.6,40.4,55,36.8z M49.9,43.3c-0.2,0.1-0.3,0.3-0.4,0.5
		c-2.1-0.2-3.8-1.4-4.7-3.3c-1.3-2.9,2.6-1.8,3.5,0.1c0.2,0.5,1.1,0.5,1.3,0c0.3-0.7,0.6-1.4,1-2.1c0.3-0.5,0.9-1.2,1.5-1.3
		c1-0.2,1.9,0.8,2,1.7C54.3,41.3,51.7,42.3,49.9,43.3z"/>
</g>
</svg>
