<?xml version="1.0" encoding="utf-8"?>
<!-- Generator: Adobe Illustrator 18.1.0, SVG Export Plug-In . SVG Version: 6.00 Build 0)  -->
<svg version="1.1" id="Capa_1" xmlns="http://www.w3.org/2000/svg" xmlns:xlink="http://www.w3.org/1999/xlink" x="0px" y="0px"
	 viewBox="0 0 100 100" enable-background="new 0 0 100 100" xml:space="preserve">
<path fill="#1E1E1C" d="M77.4,30.4c-3.3-4.9-10-6.6-15.5-5.1c-5.7,1.5-9.9,6.2-11.7,11.6c-1.4-4.6-4.5-9.1-9.2-10.3
	c-7.1-1.9-13.8,3.5-16.5,9.7c-5.7,13,1.6,29.2,13.6,35.9c-1.1,0-2.1,0-3.2,0c0,0-0.1,0-0.1,0c-0.2-0.1-0.4,0-0.5,0.2
	c-0.3,0.3-0.3,1,0.2,1c0.4,0.1,0.9,0.1,1.3,0.2c3.2,1.1,6.5,1.8,9.9,2.1c0.8,0.1,1.1-1,0.6-1.4c-1.2-1.3-2.4-2.7-3.5-4.1
	c-0.6-0.8-1.1-1.7-1.8-2.4c-0.1-0.3-0.3-0.5-0.4-0.8c-0.5-1-2.1-0.1-1.5,0.9c0.6,1.3,1.3,2.6,1.9,3.9c-9.5-6-17.4-15.6-16.5-27.6
	c0.5-6.9,4.6-14.7,12.2-15.6c8.2-1,10.4,6.6,12.6,12.7C49.7,42,51.1,42,51,41c0-0.4-0.1-0.8-0.2-1.3c2.3-5.6,6.1-10.9,12.4-12.2
	c8.6-1.8,14.9,5.3,13.7,13.6c-1.4,10-9.6,17.5-16.3,25c-0.3-0.7-0.3-1.7-0.3-2.5c0-0.6-1-0.8-1.1-0.2c-0.3,1.3-0.5,2.8,0.2,4
	c-0.5,0.6-1,1.2-1.5,1.7c0-0.1,0-0.3-0.1-0.5c-0.1-0.7-0.2-1.3-0.3-2c-0.1-0.6-1.1-0.4-1,0.1c0.1,0.9,0.1,1.8,0.2,2.8
	c0,0.3,0.1,0.6,0.2,0.8c-0.3,0.4-0.7,0.9-1,1.3c-0.6,0.9,0.7,1.8,1.4,1.1c0.5-0.5,1-0.9,1.5-1.4c0.2,0,0.3,0,0.5,0c1,0,2,0.2,3,0.1
	c1.3-0.1,1.3-2,0-2.1c-0.4,0-0.9,0-1.4,0c0.2-0.2,0.5-0.5,0.7-0.7c0.2,0,0.4,0,0.7,0c1.4,0.1,2.9,0.3,4.3-0.1c0.8-0.2,0.8-1.4,0-1.7
	c-1-0.3-2.1-0.2-3.1-0.1c4.8-5,9.3-10.6,12.6-16.2C79.4,44.8,81.6,36.6,77.4,30.4z"/>
</svg>
