<?xml version="1.0" encoding="utf-8"?>
<!-- Generator: Adobe Illustrator 18.1.0, SVG Export Plug-In . SVG Version: 6.00 Build 0)  -->
<svg version="1.1" id="Capa_1" xmlns="http://www.w3.org/2000/svg" xmlns:xlink="http://www.w3.org/1999/xlink" x="0px" y="0px"
	 viewBox="0 0 100 100" enable-background="new 0 0 100 100" xml:space="preserve">
<path fill="#1E1E1C" d="M74.4,39.8c0-0.2,0-0.4-0.1-0.6c0,0,0-0.1,0-0.1c-1-3-2.2-5.8-3.9-8.5c-1-1.6-2.5-5-4.3-5.8
	c-0.8-0.4-1.4-0.1-1.9,0.3c-4.6-0.6-9.2-0.7-13.9-0.6c-0.1-0.1-0.1-0.1-0.2-0.2c-0.3-0.3-1-0.4-1.3,0c-0.1,0.1-0.1,0.1-0.2,0.2
	c-4.2,0.1-8.4,0.3-12.5,0.3c-0.4,0-0.6,0.4-0.6,0.8c-0.1,0-0.3,0-0.4,0c-1.7,0.2-4.1,4-5.1,5.2c-2.2,2.5-4.3,5.2-6.1,8
	c-0.1,0.2-0.1,0.5,0.1,0.6c-0.2,0.4,0,1,0.5,1c0,0,0,0,0,0C26.7,47,31.6,53.1,35.1,59c3.3,5.5,6.3,11.4,11,15.9
	c0.3,0.2,0.6,0.3,0.8,0.1c0.2,0.1,0.5,0.1,0.8-0.1c10.6-9.1,23-20.9,27.8-34.4C75.7,39.9,74.9,39.6,74.4,39.8z M66.5,28.1
	c2.5,3.1,4.4,7,6.3,10.6c-4.5-0.4-9.1-0.8-13.8-1c0-0.1-0.1-0.1-0.1-0.2c1.2-1.9,2.4-3.8,3.5-5.8c0.6-1,1.2-2,1.8-3
	C65.1,27.2,65.1,26.3,66.5,28.1z M63,26.9c-1.8,3-3.4,6.1-4.9,9.2c-1.8-3.4-3.8-6.5-6.2-9.5C55.6,26.5,59.3,26.5,63,26.9z
	 M49.3,26.6c0.1,0,0.2,0,0.3,0c2.9,3.5,5.5,7.2,7.8,11c-5.3-0.2-10.6-0.2-15.9,0C43.9,33.8,46.4,30.1,49.3,26.6z M47,26.7
	c-2.6,3.4-4.9,7-6.6,10.9c-0.5-3.3-2-6.5-3.1-9.7c-0.2-0.7-0.4-1.4-0.8-1.8C40,26.6,43.5,26.7,47,26.7z M34.3,28.5
	c1.3-1.4,1.2-1.4,1.8,0.4c0.4,1.1,0.7,2.2,1.1,3.3c0.6,1.8,1.2,3.8,2.1,5.5c-4.8,0.3-9.5,0.7-14.2,1.4C28.1,35.5,31,31.9,34.3,28.5z
	 M25.5,40.4c4.5-0.1,8.9-0.3,13.4-0.4c1.2,10.5,3,21.9,6.6,32c-3.9-4.8-6.7-10.4-9.9-15.6C32.5,51.2,29.7,44.9,25.5,40.4z
	 M46.7,72.8c-1.4-10.9-4.1-22-6.2-32.8c5.8-0.1,11.5-0.2,17.3-0.1C52.1,49.7,50.5,62.2,46.7,72.8z M47.9,73
	c2.3-5.2,3.9-10.8,5.5-16.2c1.7-5.8,4-11.3,6.2-16.9c4.7,0.1,9.4,0.3,14.1,0.6c0.2,0,0.3,0,0.4-0.1C69.4,53.1,57.5,63.6,47.9,73z"/>
</svg>
