<?xml version="1.0" encoding="utf-8"?>
<!-- Generator: Adobe Illustrator 18.1.0, SVG Export Plug-In . SVG Version: 6.00 Build 0)  -->
<svg version="1.1" id="Capa_1" xmlns="http://www.w3.org/2000/svg" xmlns:xlink="http://www.w3.org/1999/xlink" x="0px" y="0px"
	 viewBox="0 0 100 100" enable-background="new 0 0 100 100" xml:space="preserve">
<path fill="#1E1E1C" d="M77.8,38.6c-5.9-14.5-23.3-9.2-27.9,2.7c-4-11-21.1-13.5-27.4-1.9c-3.2,6-2,12.8,2.2,18
	c2.4,3,5.6,5.3,8.9,7.3c4.6,2.8,10.1,4.9,12.2,10.2c0.3,0.7,1,0.7,1.4,0.4c0.2,0.2,0.6,0.3,1,0.1c5.2-2.5,10.2-5.4,15.4-7.9
	c3.9-1.9,7.9-3.8,10.8-7.1C79.7,54.6,80.7,45.7,77.8,38.6z M77,48c-0.8,15.7-19.2,18.3-29.8,25.8c0,0,0,0-0.1,0.1
	c-1.2-3.8-4.1-6.2-7.5-8.3c-5.4-3.3-11.4-6.2-14.8-11.9c-4.3-7.1-1.2-16.9,7.1-19.4c8.9-2.6,15.4,3.8,16.9,11.9c0,0.1,0,0.1,0,0.2
	c0,0.1,0,0.2,0.1,0.3c0,0.1,0,0.2,0,0.3c0.1,1,1.7,0.7,1.8-0.2c0-0.9,0-1.7-0.1-2.5c2-5.9,6.3-11,12.7-12.2
	C72.8,30.2,77.4,40.1,77,48z"/>
</svg>
