<?xml version="1.0" encoding="utf-8"?>
<!-- Generator: Adobe Illustrator 18.1.0, SVG Export Plug-In . SVG Version: 6.00 Build 0)  -->
<svg version="1.1" id="Capa_1" xmlns="http://www.w3.org/2000/svg" xmlns:xlink="http://www.w3.org/1999/xlink" x="0px" y="0px"
	 viewBox="0 0 100 100" enable-background="new 0 0 100 100" xml:space="preserve">
<path fill="#1E1E1C" d="M76.9,30.4c-7.1-4.4-18.6,2.1-24.2,6.6C38.2,27.9,15.6,48,27.1,63.1c5.6,7.4,16.8,7,23.9,2.3
	c2-1.3,4.2-3.3,5.9-5.7c0,0,0.1,0,0.1,0c8.3,1.4,18.9,1,23.7-7.1C84.2,46.8,83.3,34.4,76.9,30.4z M28.5,61.9
	c-4.8-6.4-2.4-15.2,3.4-20c5.6-4.6,13-6.1,19.8-3.8c-0.8,0.8-1.5,1.6-2.1,2.5c-0.1-0.1-0.2-0.2-0.4-0.2C38.7,36.8,23.7,50,32.1,60.4
	c3.8,4.7,9.3,4,14.3,1.6c6.3-3,8.4-7.2,7.7-13.8c0,0,0,0,0,0c0.4-1,1-2.1,1.9-3.2c0.1,0,0.1,0.1,0.2,0.1c0.9,0.2,1.7,0.7,2.1,1.5
	C62.4,61.3,38.1,74.7,28.5,61.9z M51.2,55.3c-1,1.6-2.3,2.9-4.2,4.1c-4.3,2.6-9.8,4.3-13.4-0.3c-7.2-9,6.5-20.1,15.2-17.3
	C46.2,46.3,46.3,51.7,51.2,55.3z M59.3,45.6c-0.2-0.3-0.5-0.3-0.8-0.2c-0.3-0.7-0.9-1.2-1.5-1.6c4.5-5.1,12.7-9.8,17.4-4.2
	c3.5,4.2,2.8,10.2-1.9,13c-3.8,2.2-8.1,1.8-12.2,1.1c0,0,0,0-0.1,0C60.9,51,60.8,48.2,59.3,45.6z M78.5,53
	c-4.9,6.2-13.3,5.9-20.3,4.9c0.6-1,1.1-2,1.5-3c0,0,0.1,0.1,0.1,0.1c5.4,2.2,11.5,1.5,15.6-2.9c3.1-3.4,4-8.6,1.1-12.5
	c-3.1-4.2-8.3-4.8-12.8-2.7c-4.4,2.1-10.2,5.6-10.7,10.9c0,0,0,0,0,0c-0.1,0-0.1,0.1,0,0.2c0,0.2,0.1,0.3,0.2,0.4
	c-0.2,2.1-0.5,4-1.3,5.6c-6.1-6.1-1.3-13.6,5-17.5c5.2-3.2,15-8.6,20.6-3.4C82.3,37.7,82.4,48.1,78.5,53z"/>
</svg>
