<?xml version="1.0" encoding="utf-8"?>
<!-- Generator: Adobe Illustrator 18.1.0, SVG Export Plug-In . SVG Version: 6.00 Build 0)  -->
<svg version="1.1" id="Capa_1" xmlns="http://www.w3.org/2000/svg" xmlns:xlink="http://www.w3.org/1999/xlink" x="0px" y="0px"
	 viewBox="0 0 100 100" enable-background="new 0 0 100 100" xml:space="preserve">
<g>
	<path fill="#1E1E1C" d="M48.7,36.8c-0.2,0-0.3,0.1-0.4,0.2c-8.3-2.7-15.4,8.1-16.4,15.1c-1.5,10,7.7,17.8,17.2,17.9
		c9,0.1,16.7-7.3,17.3-16.3C66.9,44.2,58.2,35.8,48.7,36.8z M51.1,68.3c-8.3,1-17.9-4.9-17.7-14c0.1-4.3,2-9,5-12
		c3.5-3.4,7-3.7,11.6-4c0.1,0,0.2-0.1,0.2-0.2c7.5,0.7,14.4,6.2,14.6,14.3C64.9,60.2,58.9,67.4,51.1,68.3z"/>
	<path fill="#1E1E1C" d="M53.5,30.5c0.4-0.6,0.7-1.3,0.5-1.9c-0.1-0.2-0.4-0.3-0.6-0.2c-0.9,0.5-1.4,1.9-2.1,2.6
		c-0.3,0.4-0.7,0.7-1,1c0.5-1.3,0.8-2.9,1.2-4.2c0.7,0,1.4,0,2-0.1c0,0.2,0,0.3,0.1,0.5c0.1,0.3,0.4,0.3,0.6,0.1
		c0.8-1.3,0.1-3.1-0.7-4.1c0,0-0.1-0.1-0.1-0.1c0-0.1,0-0.2-0.1-0.3c-0.5-0.6-1.6-0.4-2.3-0.3c0,0-0.1,0-0.1,0.1c-2-0.4-4-0.2-6,0.1
		c-0.5,0.1-0.4,0.8,0,0.9c-1,0.5-1.4,1.8-2.1,2.6c-0.1,0-0.2,0.1-0.3,0.3c-0.1,0.1-0.2,0.2-0.3,0.2c-0.2,0.1-0.1,0.4,0.1,0.4
		c0,0,0.1,0,0.1-0.1c-0.1,0.2-0.1,0.4,0,0.6c0.5,1.2,1.4,2.4,2.4,3.5C32.6,31.5,24.9,44,25.2,55.5c0.1,5.6,1.4,12.1,5.9,15.9
		c4.8,4,12.8,4.8,18.8,4.5c11.5-0.5,23-7.7,24.2-20C75.2,42.9,65.5,33.4,53.5,30.5z M53.4,26.4c0.1,0.2,0.1,0.5,0.1,0.7
		c-0.6-0.3-1.2-0.4-1.9-0.6c0.4-0.4,0.9-0.8,1.3-1.2C53.1,25.6,53.3,26,53.4,26.4z M49.3,24.3c0.5,0.3,0.9,0.8,1,1.4
		c0.1,0.3,0.5,0.2,0.5-0.1c0-0.7-0.2-1.2-0.6-1.7c0.3,0,0.7,0,1-0.1c0,0,0,0,0,0c0.4,0.2,0.7,0.3,1.1,0.4c-0.4,0.6-0.9,1.2-1.4,1.8
		C51,26.2,51,26.2,51,26.3c0,0,0,0,0,0c-0.1,0-0.1,0.1,0,0.1c0,0,0,0,0,0c0,0,0,0,0,0c-0.8-0.1-1.7-0.2-2.6-0.1
		C48.7,25.6,49,25,49.3,24.3z M48.7,27.6c0.6,0,1.1,0,1.7,0.1c-0.3,0.9-0.7,1.8-1,2.7c-0.3-1-0.6-1.9-1-2.8
		C48.5,27.6,48.6,27.6,48.7,27.6z M48.2,24.1c-0.3,0.6-0.5,1.2-0.7,1.8c0,0,0,0,0,0c-0.4-0.6-0.5-1.4-1.2-1.7
		C46.9,24.2,47.6,24.2,48.2,24.1z M44.8,25.5c0.5-0.4,1.1-0.7,1.6,0c0.1,0.2,0.2,0.5,0.3,0.7c0,0.1,0.1,0.1,0.1,0.1c0,0,0,0.1,0,0.1
		c-1.1,0.1-2.2,0.3-3.2,0.4C44,26.4,44.4,25.9,44.8,25.5z M47.3,27.7c0.3,0.9,0.6,1.8,0.8,2.7c0.2,0.9,0.4,1.9,0.7,2.8
		c-0.1,0.1-0.2,0.2-0.4,0.2c-0.1,0-0.1,0.1-0.1,0.1c-0.7-0.9-1.5-1.8-2.3-2.7c-0.8-1-1.6-2-2.4-2.9C44.9,27.8,46.1,27.7,47.3,27.7z
		 M52.2,74c-5.1,0.6-10.6,0.1-15.4-1.7c-6.7-2.4-9.4-8.5-9.7-15.2c-0.6-11.9,6.6-23,19.1-23.8c0.6,0.5,1.1,0.9,1.7,1.3
		c0.2,0.2,0.5,0,0.7-0.2c0.1,0,0.3,0,0.5,0c1.3-0.6,2.4-1.5,3.4-2.6c0.1-0.1,0.2-0.2,0.3-0.3C62.9,33.9,71.7,42,72.3,52.9
		C73,64.6,63,72.7,52.2,74z"/>
</g>
</svg>
